<svg xmlns="http://www.w3.org/2000/svg" xmlns:xlink="http://www.w3.org/1999/xlink" width="1040" height="103.42"><rect width="1040" height="103.42" rx="5" ry="5" class="a"/><svg y="0%" x="0%"><circle cx="20" cy="20" r="6" fill="#ff5f58"/><circle cx="40" cy="20" r="6" fill="#ffbd2e"/><circle cx="60" cy="20" r="6" fill="#18c132"/></svg><svg height="43.42" viewBox="0 0 100 4.342" width="1000" x="15" xmlns="http://www.w3.org/2000/svg" xmlns:xlink="http://www.w3.org/1999/xlink" y="50"><style>@keyframes j{0%{transform:translateX(0)}4.71%{transform:translateX(-100px)}10.97%{transform:translateX(-200px)}13.47%{transform:translateX(-300px)}17.17%{transform:translateX(-400px)}23.65%{transform:translateX(-500px)}29.28%{transform:translateX(-600px)}35.33%{transform:translateX(-700px)}41.15%{transform:translateX(-800px)}47.02%{transform:translateX(-900px)}52.65%{transform:translateX(-1000px)}58.64%{transform:translateX(-1100px)}64.8%{transform:translateX(-1200px)}71.11%{transform:translateX(-1300px)}76.49%{transform:translateX(-1400px)}81.85%{transform:translateX(-1600px)}}.a{fill:#1e1e1e}.f{fill:#2472c8;font-weight:700}.f,.g,.h{white-space:pre}.g{fill:#e5e5e5;font-weight:700}.h{fill:#bc3fbc}</style><g font-family="Monaco,Consolas,Menlo,'Bitstream Vera Sans Mono','Powerline Symbols',monospace" font-size="1.67"><defs><symbol id="1"><text y="1.67" class="f">romloader_uart_ttyUSB0&gt;</text><text x="24.048" y="1.67" class="g">write</text><text x="30.06" y="1.67" class="g">I</text><text x="31.062" y="1.67" class="h">F0</text><text x="34.068" y="1.67" class="h">IF0_INFO</text><text x="43.086" y="1.67" class="h">IF0_K</text><text x="49.098" y="1.67" class="h">IF1</text><text x="53.106" y="1.67" class="h">IF1_INFO</text><text x="62.124" y="1.67" class="h">IF1_K</text><text x="68.136" y="1.67" class="h">IF2</text><text x="72.144" y="1.67" class="h">IF2_INFO</text><text x="81.162" y="1.67" class="h">IF2_K</text><text x="87.174" y="1.67" class="h">IF01</text></symbol><symbol id="2"><text y="1.67" class="f">romloader_uart_ttyUSB0&gt;</text><text x="24.048" y="1.67" class="g">write</text><text x="30.06" y="1.67" class="g">IF01</text></symbol><symbol id="a"><path fill="transparent" d="M0 0h100v2H0z"/></symbol></defs><path class="a" d="M0 0h100v4.342H0z"/><g style="animation-duration:27.543171s;animation-iteration-count:infinite;animation-name:j;animation-timing-function:steps(1,end)"><svg width="1700"><svg><use xlink:href="#a"/><text y="1.67" class="f">romloader_uart_ttyUSB0&gt;</text></svg><svg x="100"><use xlink:href="#a"/><text y="1.67" class="f">romloader_uart_ttyUSB0&gt;</text><text x="24.048" y="1.67" class="g">w</text><text x="25.05" y="1.67" class="h">rite</text></svg><svg x="200"><use xlink:href="#a"/><text y="1.67" class="f">romloader_uart_ttyUSB0&gt;</text><text x="24.048" y="1.67" class="g">write</text></svg><svg x="300"><use xlink:href="#a"/><text y="1.67" class="f">romloader_uart_ttyUSB0&gt;</text><text x="24.048" y="1.67" class="g">write</text><text x="30.06" y="1.67" class="h">[device]</text><text x="40.08" y="1.67" class="h">possible</text><text x="49.098" y="1.67" class="h">values:</text><text x="57.114" y="1.67" class="h">SQI_CS0,</text><text x="66.132" y="1.67" class="h">SQI_CS1,</text><text x="75.15" y="1.67" class="h">SQI_CS2,</text><text x="84.168" y="1.67" class="h">IF0,</text><text x="89.178" y="1.67" class="h">IF0_INFO,</text></svg><svg x="400"><use xlink:href="#a"/><use xlink:href="#1"/></svg><svg x="500"><use xlink:href="#a"/><text y="1.67" class="f">romloader_uart_ttyUSB0&gt;</text><text x="24.048" y="1.67" class="g">write</text><text x="30.06" y="1.67" class="g">IF0</text><text x="34.068" y="1.67" class="h">IF0_INFO</text><text x="43.086" y="1.67" class="h">IF0_K</text><text x="49.098" y="1.67" class="h">IF01</text></svg><svg x="600"><use xlink:href="#a"/><text y="1.67" class="f">romloader_uart_ttyUSB0&gt;</text><text x="24.048" y="1.67" class="g">write</text><text x="30.06" y="1.67" class="g">IF0_INFO</text></svg><svg x="700"><use xlink:href="#a"/><text y="1.67" class="f">romloader_uart_ttyUSB0&gt;</text><text x="24.048" y="1.67" class="g">write</text><text x="30.06" y="1.67" class="g">IF0_K</text></svg><svg x="800"><use xlink:href="#a"/><text y="1.67" class="f">romloader_uart_ttyUSB0&gt;</text><text x="24.048" y="1.67" class="g">write</text><text x="30.06" y="1.67" class="g">IF1</text><text x="34.068" y="1.67" class="h">IF1_INFO</text><text x="43.086" y="1.67" class="h">IF1_K</text></svg><svg x="900"><use xlink:href="#a"/><text y="1.67" class="f">romloader_uart_ttyUSB0&gt;</text><text x="24.048" y="1.67" class="g">write</text><text x="30.06" y="1.67" class="g">IF1_INFO</text></svg><svg x="1000"><use xlink:href="#a"/><text y="1.67" class="f">romloader_uart_ttyUSB0&gt;</text><text x="24.048" y="1.67" class="g">write</text><text x="30.06" y="1.67" class="g">IF1_K</text></svg><svg x="1100"><use xlink:href="#a"/><text y="1.67" class="f">romloader_uart_ttyUSB0&gt;</text><text x="24.048" y="1.67" class="g">write</text><text x="30.06" y="1.67" class="g">IF2</text><text x="34.068" y="1.67" class="h">IF2_INFO</text><text x="43.086" y="1.67" class="h">IF2_K</text></svg><svg x="1200"><use xlink:href="#a"/><text y="1.67" class="f">romloader_uart_ttyUSB0&gt;</text><text x="24.048" y="1.67" class="g">write</text><text x="30.06" y="1.67" class="g">IF2_INFO</text></svg><svg x="1300"><use xlink:href="#a"/><text y="1.67" class="f">romloader_uart_ttyUSB0&gt;</text><text x="24.048" y="1.67" class="g">write</text><text x="30.06" y="1.67" class="g">IF2_K</text></svg><svg x="1400"><use xlink:href="#a"/><use xlink:href="#2"/></svg><svg x="1500"><use xlink:href="#a"/><use xlink:href="#2"/></svg><svg x="1600"><use xlink:href="#a"/><use xlink:href="#1"/></svg></svg></g></g></svg></svg>