<svg xmlns="http://www.w3.org/2000/svg" xmlns:xlink="http://www.w3.org/1999/xlink" width="1040" height="103.42"><rect width="1040" height="103.42" rx="5" ry="5" class="a"/><svg y="0%" x="0%"><circle cx="20" cy="20" r="6" fill="#ff5f58"/><circle cx="40" cy="20" r="6" fill="#ffbd2e"/><circle cx="60" cy="20" r="6" fill="#18c132"/></svg><svg height="43.42" viewBox="0 0 100 4.342" width="1000" x="15" xmlns="http://www.w3.org/2000/svg" xmlns:xlink="http://www.w3.org/1999/xlink" y="50"><style>@keyframes h{0%{transform:translateX(0)}7.57%{transform:translateX(-100px)}12.21%{transform:translateX(-200px)}16.96%{transform:translateX(-300px)}21.76%{transform:translateX(-400px)}26.57%{transform:translateX(-500px)}31.44%{transform:translateX(-600px)}36.23%{transform:translateX(-700px)}41.14%{transform:translateX(-800px)}46.1%{transform:translateX(-900px)}50.78%{transform:translateX(-1000px)}55.37%{transform:translateX(-1100px)}60.21%{transform:translateX(-1200px)}64.8%{transform:translateX(-1300px)}69.36%{transform:translateX(-1400px)}74.41%{transform:translateX(-1500px)}79.23%{transform:translateX(-1600px)}}.a{fill:#1e1e1e}.f,.j{fill:#2472c8;font-weight:700;white-space:pre}.j{fill:#e5e5e5}</style><g font-family="Monaco,Consolas,Menlo,'Bitstream Vera Sans Mono','Powerline Symbols',monospace" font-size="1.67"><defs><symbol id="1"><text y="1.67" class="f">not</text><text x="4.008" y="1.67" class="f">connected&gt;</text></symbol><symbol id="a"><path fill="transparent" d="M0 0h100v2H0z"/></symbol></defs><path class="a" d="M0 0h100v4.342H0z"/><g style="animation-duration:24.071804999999998s;animation-iteration-count:infinite;animation-name:h;animation-timing-function:steps(1,end)"><svg width="1700"><svg><use xlink:href="#a"/><use xlink:href="#1"/></svg><svg x="100"><use xlink:href="#a"/><text y="1.67" class="f">not</text><text x="4.008" y="1.67" class="f">connected&gt;</text><text x="15.03" y="1.67" class="j">connect</text></svg><svg x="200"><use xlink:href="#a"/><text y="1.67" class="f">not</text><text x="4.008" y="1.67" class="f">connected&gt;</text><text x="15.03" y="1.67" class="j">disconnect</text></svg><svg x="300"><use xlink:href="#a"/><text y="1.67" class="f">not</text><text x="4.008" y="1.67" class="f">connected&gt;</text><text x="15.03" y="1.67" class="j">read</text></svg><svg x="400"><use xlink:href="#a"/><text y="1.67" class="f">not</text><text x="4.008" y="1.67" class="f">connected&gt;</text><text x="15.03" y="1.67" class="j">write</text></svg><svg x="500"><use xlink:href="#a"/><text y="1.67" class="f">not</text><text x="4.008" y="1.67" class="f">connected&gt;</text><text x="15.03" y="1.67" class="j">erase</text></svg><svg x="600"><use xlink:href="#a"/><text y="1.67" class="f">not</text><text x="4.008" y="1.67" class="f">connected&gt;</text><text x="15.03" y="1.67" class="j">iserased</text></svg><svg x="700"><use xlink:href="#a"/><text y="1.67" class="f">not</text><text x="4.008" y="1.67" class="f">connected&gt;</text><text x="15.03" y="1.67" class="j">verify</text></svg><svg x="800"><use xlink:href="#a"/><text y="1.67" class="f">not</text><text x="4.008" y="1.67" class="f">connected&gt;</text><text x="15.03" y="1.67" class="j">hash</text></svg><svg x="900"><use xlink:href="#a"/><text y="1.67" class="f">not</text><text x="4.008" y="1.67" class="f">connected&gt;</text><text x="15.03" y="1.67" class="j">scan</text></svg><svg x="1000"><use xlink:href="#a"/><text y="1.67" class="f">not</text><text x="4.008" y="1.67" class="f">connected&gt;</text><text x="15.03" y="1.67" class="j">help</text></svg><svg x="1100"><use xlink:href="#a"/><text y="1.67" class="f">not</text><text x="4.008" y="1.67" class="f">connected&gt;</text><text x="15.03" y="1.67" class="j">quit</text></svg><svg x="1200"><use xlink:href="#a"/><text y="1.67" class="f">not</text><text x="4.008" y="1.67" class="f">connected&gt;</text><text x="15.03" y="1.67" class="j">input</text></svg><svg x="1300"><use xlink:href="#a"/><text y="1.67" class="f">not</text><text x="4.008" y="1.67" class="f">connected&gt;</text><text x="15.03" y="1.67" class="j">debug</text></svg><svg x="1400"><use xlink:href="#a"/><text y="1.67" class="f">not</text><text x="4.008" y="1.67" class="f">connected&gt;</text><text x="15.03" y="1.67" class="j">list</text></svg><svg x="1500"><use xlink:href="#a"/><text y="1.67" class="f">not</text><text x="4.008" y="1.67" class="f">connected&gt;</text><text x="15.03" y="1.67" class="j">#</text></svg><svg x="1600"><use xlink:href="#a"/><use xlink:href="#1"/></svg></svg></g></g></svg></svg>