<svg xmlns="http://www.w3.org/2000/svg" xmlns:xlink="http://www.w3.org/1999/xlink" width="1040" height="103.42"><rect width="1040" height="103.42" rx="5" ry="5" class="a"/><svg y="0%" x="0%"><circle cx="20" cy="20" r="6" fill="#ff5f58"/><circle cx="40" cy="20" r="6" fill="#ffbd2e"/><circle cx="60" cy="20" r="6" fill="#18c132"/></svg><svg height="43.42" viewBox="0 0 100 4.342" width="1000" x="15" xmlns="http://www.w3.org/2000/svg" xmlns:xlink="http://www.w3.org/1999/xlink" y="50"><style>@keyframes j{0%{transform:translateX(0)}5.42%{transform:translateX(-100px)}8.09%{transform:translateX(-200px)}11.32%{transform:translateX(-300px)}16.68%{transform:translateX(-400px)}20.45%{transform:translateX(-500px)}24.05%{transform:translateX(-600px)}28.95%{transform:translateX(-700px)}34.57%{transform:translateX(-800px)}41.7%{transform:translateX(-900px)}49.39%{transform:translateX(-1000px)}58.99%{transform:translateX(-1100px)}67.02%{transform:translateX(-1200px)}75.03%{transform:translateX(-1300px)}82.97%{transform:translateX(-1500px)}}.a{fill:#1e1e1e}.f{fill:#2472c8;font-weight:700}.f,.g,.h{white-space:pre}.g{fill:#e5e5e5;font-weight:700}.h{fill:#bc3fbc}</style><g font-family="Monaco,Consolas,Menlo,'Bitstream Vera Sans Mono','Powerline Symbols',monospace" font-size="1.67"><defs><symbol id="1"><text y="1.67" class="f">romloader_uart_ttyUSB0&gt;</text><text x="24.048" y="1.67" class="g">write</text><text x="30.06" y="1.67" class="g">SQI_CS0</text><text x="38.076" y="1.67" class="g">0</text><text x="40.08" y="1.67" class="g">testData/t</text><text x="50.1" y="1.67" class="h">estData_A.txt</text><text x="64.128" y="1.67" class="h">testData/testData_B.txt</text><text x="88.176" y="1.67" class="h">testData/te</text></symbol><symbol id="2"><text y="1.67" class="f">romloader_uart_ttyUSB0&gt;</text><text x="24.048" y="1.67" class="g">write</text><text x="30.06" y="1.67" class="g">SQI_CS0</text><text x="38.076" y="1.67" class="g">0</text><text x="40.08" y="1.67" class="g">testData/testData_C.txt</text></symbol><symbol id="a"><path fill="transparent" d="M0 0h100v2H0z"/></symbol></defs><path class="a" d="M0 0h100v4.342H0z"/><g style="animation-duration:29.354054000000005s;animation-iteration-count:infinite;animation-name:j;animation-timing-function:steps(1,end)"><svg width="1600"><svg><use xlink:href="#a"/><text y="1.67" class="f">romloader_uart_ttyUSB0&gt;</text></svg><svg x="100"><use xlink:href="#a"/><text y="1.67" class="f">romloader_uart_ttyUSB0&gt;</text><text x="24.048" y="1.67" class="g">w</text><text x="25.05" y="1.67" class="h">rite</text></svg><svg x="200"><use xlink:href="#a"/><text y="1.67" class="f">romloader_uart_ttyUSB0&gt;</text><text x="24.048" y="1.67" class="g">write</text></svg><svg x="300"><use xlink:href="#a"/><text y="1.67" class="f">romloader_uart_ttyUSB0&gt;</text><text x="24.048" y="1.67" class="g">write</text><text x="30.06" y="1.67" class="h">[device]</text><text x="40.08" y="1.67" class="h">possible</text><text x="49.098" y="1.67" class="h">values:</text><text x="57.114" y="1.67" class="h">SQI_CS0,</text><text x="66.132" y="1.67" class="h">SQI_CS1,</text><text x="75.15" y="1.67" class="h">SQI_CS2,</text><text x="84.168" y="1.67" class="h">IF0,</text><text x="89.178" y="1.67" class="h">IF0_INFO,</text></svg><svg x="400"><use xlink:href="#a"/><text y="1.67" class="f">romloader_uart_ttyUSB0&gt;</text><text x="24.048" y="1.67" class="g">write</text><text x="30.06" y="1.67" class="g">SQI_CS0</text></svg><svg x="500"><use xlink:href="#a"/><text y="1.67" class="f">romloader_uart_ttyUSB0&gt;</text><text x="24.048" y="1.67" class="g">write</text><text x="30.06" y="1.67" class="g">SQI_CS0</text><text x="38.076" y="1.67" class="h">[startaddress]</text></svg><svg x="600"><use xlink:href="#a"/><text y="1.67" class="f">romloader_uart_ttyUSB0&gt;</text><text x="24.048" y="1.67" class="g">write</text><text x="30.06" y="1.67" class="g">SQI_CS0</text><text x="38.076" y="1.67" class="g">0</text><text x="43.086" y="1.67" class="h">this</text><text x="48.096" y="1.67" class="h">is</text><text x="51.102" y="1.67" class="h">the</text><text x="55.11" y="1.67" class="h">startaddress</text></svg><svg x="700"><use xlink:href="#a"/><text y="1.67" class="f">romloader_uart_ttyUSB0&gt;</text><text x="24.048" y="1.67" class="g">write</text><text x="30.06" y="1.67" class="g">SQI_CS0</text><text x="38.076" y="1.67" class="g">0</text><text x="40.08" y="1.67" class="h">[filename]</text></svg><svg x="800"><use xlink:href="#a"/><text y="1.67" class="f">romloader_uart_ttyUSB0&gt;</text><text x="24.048" y="1.67" class="g">write</text><text x="30.06" y="1.67" class="g">SQI_CS0</text><text x="38.076" y="1.67" class="g">0</text><text x="40.08" y="1.67" class="g">t</text><text x="41.082" y="1.67" class="h">estData/</text><text x="50.1" y="1.67" class="h">testData_read.txt</text></svg><svg x="900"><use xlink:href="#a"/><text y="1.67" class="f">romloader_uart_ttyUSB0&gt;</text><text x="24.048" y="1.67" class="g">write</text><text x="30.06" y="1.67" class="g">SQI_CS0</text><text x="38.076" y="1.67" class="g">0</text><text x="40.08" y="1.67" class="g">testData/</text><text x="49.098" y="1.67" class="h">testData_A.txt</text><text x="64.128" y="1.67" class="h">testData/testData_B.txt</text><text x="88.176" y="1.67" class="h">testData/te</text></svg><svg x="1000"><use xlink:href="#a"/><use xlink:href="#1"/></svg><svg x="1100"><use xlink:href="#a"/><text y="1.67" class="f">romloader_uart_ttyUSB0&gt;</text><text x="24.048" y="1.67" class="g">write</text><text x="30.06" y="1.67" class="g">SQI_CS0</text><text x="38.076" y="1.67" class="g">0</text><text x="40.08" y="1.67" class="g">testData/testData_A.txt</text></svg><svg x="1200"><use xlink:href="#a"/><text y="1.67" class="f">romloader_uart_ttyUSB0&gt;</text><text x="24.048" y="1.67" class="g">write</text><text x="30.06" y="1.67" class="g">SQI_CS0</text><text x="38.076" y="1.67" class="g">0</text><text x="40.08" y="1.67" class="g">testData/testData_B.txt</text></svg><svg x="1300"><use xlink:href="#a"/><use xlink:href="#2"/></svg><svg x="1400"><use xlink:href="#a"/><use xlink:href="#2"/></svg><svg x="1500"><use xlink:href="#a"/><use xlink:href="#1"/></svg></svg></g></g></svg></svg>